<svg width="32" height="32" viewBox="0 0 1064 1064" xmlns="http://www.w3.org/2000/svg">
  <rect width="1064" height="1064" rx="200" fill="#215BC4"/>
  <g fill="#FFFFFF">
    <path d="M387.668 229.83L297.78 305.436C296.017 306.919 295 309.104 295 311.408V381.217C295 387.789 302.624 391.416 307.719 387.268L433.755 284.664C437.139 281.909 437.605 276.913 434.79 273.579L398.643 230.767C395.868 227.481 390.959 227.062 387.668 229.83Z"/>
    <path d="M656.613 470.417L359.725 721.024C355.674 724.443 356.14 730.822 360.644 733.616L410.7 764.673C413.571 766.453 417.261 766.183 419.841 764.003L715.292 514.354C719.272 510.991 718.899 504.743 714.547 501.877L665.929 469.863C663.044 467.964 659.253 468.189 656.613 470.417Z"/>
    <path d="M757.219 556.923L475.158 791.393C471.098 794.768 471.493 801.119 475.939 803.965L525.638 835.771C528.499 837.602 532.216 837.369 534.827 835.195L767.19 641.746C768.97 640.264 770 638.067 770 635.749V562.923C770 556.314 762.3 552.699 757.219 556.923Z"/>
    <path d="M564.785 232.186L297.767 457.715C296.013 459.198 295 461.379 295 463.676V533.268C295 539.878 302.703 543.493 307.783 539.266L610.992 287.009C614.321 284.24 614.757 279.286 611.963 275.977L575.772 233.113C572.993 229.823 568.075 229.408 564.785 232.186Z"/>
    <path d="M757.222 230.23L297.818 611.689C296.033 613.171 295 615.372 295 617.692V687.182C295 693.803 302.724 697.414 307.8 693.167L767.204 308.765C768.976 307.283 770 305.091 770 302.781V236.233C770 229.627 762.304 226.011 757.222 230.23Z"/>
  </g>
</svg>
