<svg width="140" height="32" viewBox="0 0 140 32" xmlns="http://www.w3.org/2000/svg">
  <g transform="scale(0.03)">
    <g fill="#266DF0">
      <path d="M92.668 2.83L2.78 78.436C1.017 79.919 0 82.104 0 84.408V154.217C0 160.789 7.624 164.416 12.719 160.268L138.755 57.664C142.139 54.909 142.605 49.913 139.79 46.579L103.643 3.767C100.868 0.481 95.959 0.062 92.668 2.83Z"/>
      <path d="M361.613 243.417L64.725 494.024C60.674 497.443 61.14 503.822 65.644 506.616L115.7 537.673C118.571 539.453 122.261 539.183 124.841 537.003L420.292 287.354C424.272 283.991 423.899 277.743 419.547 274.877L370.929 242.863C368.044 240.964 364.253 241.189 361.613 243.417Z"/>
      <path d="M462.219 329.923L180.158 564.393C176.098 567.768 176.493 574.119 180.939 576.965L230.638 608.771C233.499 610.602 237.216 610.369 239.827 608.195L472.19 414.746C473.97 413.264 475 411.067 475 408.749V335.923C475 329.314 467.3 325.699 462.219 329.923Z"/>
      <path d="M269.785 5.186L2.767 230.715C1.013 232.198 0 234.379 0 236.676V306.268C0 312.878 7.703 316.493 12.783 312.266L315.992 60.009C319.321 57.24 319.757 52.286 316.963 48.977L280.772 6.113C277.993 2.823 273.075 2.408 269.785 5.186Z"/>
      <path d="M462.222 3.23L2.818 384.689C1.033 386.171 0 388.372 0 390.692V460.182C0 466.803 7.724 470.414 12.8 466.167L472.204 81.765C473.976 80.283 475 78.091 475 75.781V9.233C475 2.627 467.304 -0.989 462.222 3.23Z"/>
    </g>
  </g>
  <text x="42" y="22" font-family="Manrope, system-ui, sans-serif" font-size="18" font-weight="700" fill="#FFFFFF">Bastion</text>
</svg>
